<?xml version="1.0" standalone="no"?>
<!DOCTYPE svg PUBLIC "-//W3C//DTD SVG 20010904//EN"
 "http://www.w3.org/TR/2001/REC-SVG-20010904/DTD/svg10.dtd">
<svg version="1.0" xmlns="http://www.w3.org/2000/svg"
 width="700.000000pt" height="700.000000pt" viewBox="0 0 700.000000 700.000000"
 preserveAspectRatio="xMidYMid meet">
<metadata>
Created by potrace 1.11, written by Peter Selinger 2001-2013
</metadata>
<g transform="translate(0.000000,700.000000) scale(0.100000,-0.100000)"
fill="#000000" stroke="none">
<path d="M3418 6416 c-1 -2 -43 -6 -93 -9 -49 -4 -101 -8 -115 -11 -14 -3 -43
-7 -64 -11 -74 -11 -211 -47 -311 -82 -388 -135 -732 -388 -971 -713 -116
-158 -210 -327 -266 -480 -10 -30 -23 -64 -28 -75 -33 -75 -74 -250 -95 -400
-13 -99 -14 -470 -1 -525 3 -14 9 -45 12 -70 3 -25 10 -63 16 -85 5 -22 12
-48 14 -59 32 -166 160 -461 276 -636 132 -199 330 -408 498 -527 22 -15 40
-35 41 -43 0 -8 1 -172 2 -365 l2 -350 28 -57 c34 -69 91 -121 163 -148 54
-20 72 -20 975 -20 893 0 921 1 972 20 73 27 127 76 162 146 l30 59 1 362 0
362 50 37 c181 136 356 321 482 509 57 86 79 124 135 240 105 216 150 362 193
625 9 61 13 423 4 485 -5 33 -11 80 -14 105 -18 140 -93 377 -174 550 -150
323 -410 622 -714 823 -87 58 -244 147 -259 147 -5 0 -23 8 -41 18 -86 48
-355 130 -478 147 -25 3 -52 8 -61 11 -35 10 -361 27 -371 20z m302 -599 c14
-3 39 -8 55 -11 119 -20 273 -75 405 -143 219 -114 437 -319 562 -528 74 -124
150 -303 172 -405 16 -75 25 -120 31 -160 11 -73 13 -292 3 -361 -5 -35 -11
-75 -13 -89 -15 -105 -71 -272 -133 -396 -118 -234 -276 -408 -547 -599 l-170
-121 -1 -314 c-1 -173 -2 -324 -3 -336 l-1 -21 -582 1 -582 1 -1 335 0 334
-170 121 c-120 84 -202 152 -276 227 -231 231 -376 526 -416 848 -11 86 -7
317 7 400 87 531 445 962 952 1148 74 27 200 59 262 66 27 3 52 8 54 11 7 7
359 -1 392 -8z"/>
<path d="M2627 1156 c-2 -6 -3 -86 -2 -177 2 -153 4 -170 27 -220 31 -68 78
-114 148 -148 l55 -26 645 0 645 0 55 26 c88 42 146 111 166 199 7 35 14 325
7 346 -5 15 -1741 15 -1746 0z"/>
</g>
</svg>
